<svg width="100" height="100" viewBox="0 0 100 100" fill="none" xmlns="http://www.w3.org/2000/svg">
<rect width="100" height="100" rx="50" fill="black"/>
<path fill-rule="evenodd" clip-rule="evenodd" d="M68.9016 29.5249C74.0487 34.1939 78.7346 41.8465 81.3845 50.0401C78.7344 58.2335 74.0483 65.8859 68.9011 70.5547C64.2412 74.7815 57.1086 78.4642 49.4762 80.5621C42.3389 78.5032 35.7188 75.0316 31.2769 71.0023C26.0751 66.2837 21.2486 58.4323 18.5052 50.0392C21.2488 41.6461 26.0756 33.7947 31.2775 29.0762C35.7195 25.0471 42.3397 21.5757 49.4771 19.517C57.1093 21.6151 64.2419 25.298 68.9016 29.5249ZM71.5885 73.5174C76.0935 69.4312 80.1591 63.4525 83.0702 56.8345C84.4707 65.0354 83.2826 72.2144 79.2222 76.6905C74.7345 81.6378 66.6196 83.4138 57.1735 82.1793C62.7728 79.9266 67.8386 76.9189 71.5885 73.5174ZM28.5894 73.965C32.0889 77.1394 36.6991 79.939 41.803 82.0871C32.5972 83.1999 24.779 81.449 20.4618 76.6894C16.4391 72.2546 15.3118 65.0484 16.7969 56.7612C19.7975 63.6073 23.9954 69.7977 28.5894 73.965ZM17.4991 79.3768C11.1248 72.3494 11.0183 60.9387 14.3124 50.0392C11.0185 39.1395 11.1253 27.7286 17.4998 20.7013C24.4587 13.0299 37.3427 12.285 49.4516 15.3728C61.7321 12.0827 75.015 12.7964 82.1858 20.702C88.6092 27.7835 88.8124 39.1852 85.5729 50.0402C88.812 60.8951 88.6085 72.2966 82.1849 79.378C75.0139 87.2833 61.731 87.9967 49.4507 84.7062C37.3417 87.7938 24.4577 87.0484 17.4991 79.3768ZM71.5891 26.5622C67.8393 23.1607 62.7735 20.1529 57.1744 17.9C66.6205 16.6657 74.7354 18.442 79.223 23.3893C83.2833 27.8656 84.4712 35.0448 83.0705 43.2458C80.1595 36.6275 76.094 30.6487 71.5891 26.5622ZM20.4625 23.3888C24.7798 18.6294 32.5981 16.8787 41.8039 17.9918C36.7 20.1397 32.0897 22.9391 28.5901 26.1135C23.996 30.2807 19.7979 36.4711 16.797 43.3173C15.3121 35.0299 16.4396 27.8236 20.4625 23.3888ZM49.9999 69.9999C61.0456 69.9999 69.9999 61.0456 69.9999 49.9999C69.9999 38.9542 61.0456 29.9999 49.9999 29.9999C38.9542 29.9999 29.9999 38.9542 29.9999 49.9999C29.9999 61.0456 38.9542 69.9999 49.9999 69.9999Z" fill="url(#paint0_linear_266_2)"/>
<defs>
<linearGradient id="paint0_linear_266_2" x1="49.9017" y1="13.5249" x2="49.9017" y2="86.5545" gradientUnits="userSpaceOnUse">
<stop stop-color="#C84BB8"/>
<stop offset="1" stop-color="#7A59D0"/>
</linearGradient>
</defs>
</svg>
